<svg width="20" height="19" viewBox="0 0 20 19" fill="none" xmlns="http://www.w3.org/2000/svg">
<path d="M2.00012 2.5C2.00012 2.22386 2.22398 2 2.50012 2H17.5001C17.7763 2 18.0001 2.22386 18.0001 2.5V13.5C18.0001 13.7761 17.7763 14 17.5001 14H3.58434C3.31912 14 3.06477 14.1054 2.87723 14.2929L2.00012 15.17V2.5ZM2.00012 0C0.900123 0 0.0101227 0.9 0.0101227 2L0.00146501 17.5839C0.000969919 18.4751 1.07842 18.9217 1.70857 18.2916L3.85368 16.1464C3.94744 16.0527 4.07462 16 4.20723 16H18.0001C19.1001 16 20.0001 15.1 20.0001 14V2C20.0001 0.9 19.1001 0 18.0001 0H2.00012ZM4.00012 11C4.00012 10.4477 4.44784 10 5.00012 10H11.0001C11.5524 10 12.0001 10.4477 12.0001 11C12.0001 11.5523 11.5524 12 11.0001 12H5.00012C4.44784 12 4.00012 11.5523 4.00012 11ZM4.00012 8C4.00012 7.44772 4.44784 7 5.00012 7H15.0001C15.5524 7 16.0001 7.44772 16.0001 8C16.0001 8.55228 15.5524 9 15.0001 9H5.00012C4.44784 9 4.00012 8.55228 4.00012 8ZM4.00012 5C4.00012 4.44772 4.44784 4 5.00012 4H15.0001C15.5524 4 16.0001 4.44772 16.0001 5C16.0001 5.55228 15.5524 6 15.0001 6H5.00012C4.44784 6 4.00012 5.55228 4.00012 5Z" fill="#B3B3B3"/>
</svg>
