<svg width="16" height="16" viewBox="0 0 16 16" fill="none" xmlns="http://www.w3.org/2000/svg">
<path d="M8 8C10.21 8 12 6.21 12 4C12 1.79 10.21 0 8 0C5.79 0 4 1.79 4 4C4 6.21 5.79 8 8 8ZM8 2C9.1 2 10 2.9 10 4C10 5.1 9.1 6 8 6C6.9 6 6 5.1 6 4C6 2.9 6.9 2 8 2ZM8 9C5.33 9 0 10.34 0 13V15C0 15.55 0.45 16 1 16H15C15.55 16 16 15.55 16 15V13C16 10.34 10.67 9 8 9ZM14 13.5C14 13.7761 13.7761 14 13.5 14H2.5C2.22386 14 2 13.7761 2 13.5V13.1463C2 13.0559 2.00834 12.9639 2.05766 12.888C2.53531 12.1538 5.44653 11 8 11C10.5502 11 13.4573 12.1508 13.9405 12.8768C13.9913 12.9531 14 13.0465 14 13.1382V13.5Z" fill="#B3B3B3"/>
</svg>
