<svg width="18" height="18" viewBox="0 0 18 18" fill="none" xmlns="http://www.w3.org/2000/svg">
<path d="M4.79899 14.3282C4.76682 14.5157 4.84393 14.7053 4.9979 14.8172C5.15188 14.9291 5.35601 14.9438 5.52447 14.8552L9 13.028L12.4755 14.8552C12.644 14.9438 12.8481 14.9291 13.0021 14.8172C13.1561 14.7053 13.2332 14.5157 13.201 14.3282L12.5372 10.4581L15.349 7.7173C15.4853 7.58445 15.5343 7.38575 15.4755 7.20475C15.4167 7.02374 15.2602 6.89182 15.0719 6.86445L11.1861 6.29982L9.44837 2.77872C9.36414 2.60805 9.19032 2.5 9 2.5C8.80968 2.5 8.63586 2.60805 8.55163 2.77872L6.81386 6.29982L2.9281 6.86445C2.73976 6.89182 2.58328 7.02374 2.52447 7.20475C2.46566 7.38575 2.51471 7.58445 2.65099 7.7173L5.46276 10.4581L4.79899 14.3282Z" fill="#FFEA52" stroke="#D0AF00" stroke-linecap="round" stroke-linejoin="round"/>
</svg>
