<svg width="22" height="26" viewBox="0 0 22 26" fill="none" xmlns="http://www.w3.org/2000/svg">
<path d="M2.68763 4.15942L2.68757 4.15945C1.75544 4.599 1.16675 5.57423 1.16675 6.62522V11.7966C1.16675 18.0918 5.26718 24.0312 10.8747 25.484C10.9569 25.5053 11.0432 25.5053 11.1255 25.484C16.733 24.0312 20.8334 18.0918 20.8334 11.7966V6.62522C20.8334 5.57423 20.2447 4.599 19.3126 4.15945L19.3125 4.15942L12.0559 0.738772C12.0554 0.738553 12.055 0.738334 12.0545 0.738115C11.3899 0.420628 10.6102 0.420628 9.94565 0.738115C9.94519 0.738334 9.94473 0.738553 9.94427 0.738772L2.68763 4.15942Z" fill="#009DED" stroke="#195CA9" stroke-linecap="round" stroke-linejoin="round"/>
<path d="M7.78535 18.1301L4.7169 14.9637C4.25485 14.4869 4.25485 13.7167 4.7169 13.2399C5.17894 12.7631 5.92532 12.7631 6.38737 13.2399L8.62651 15.5383L15.5927 8.34977C16.0548 7.87297 16.8012 7.87297 17.2632 8.34977C17.7252 8.82656 17.7252 9.59676 17.2632 10.0735L9.45582 18.1301C9.00562 18.6069 8.24739 18.6069 7.78535 18.1301Z" fill="white"/>
</svg>
